<svg xmlns="http://www.w3.org/2000/svg" width="378" height="389" viewBox="0 0 378 389" fill="none"><g opacity="0.15"><path d="M240.683 247.959H367.437L368.192 249.476V263.883L367.437 264.641H256.527V287.39H240.683V247.959Z" fill="#81A247"></path><path d="M11.3174 247.959H138.072V287.39H122.228V264.641H12.0719L11.3174 263.883V247.959Z" fill="#81A247"></path><path d="M240.683 102.368H256.527L257.281 124.359L367.437 125.117V141.041H240.683V102.368Z" fill="#81A247"></path><path d="M122.228 102.368H138.072V141.041H11.3174V125.117H122.228V102.368Z" fill="#81A247"></path><path d="M201.449 275.257H217.293V389H201.449V275.257Z" fill="#81A347"></path><path d="M161.461 275.257H177.305V389H161.461V275.257Z" fill="#81A347"></path><path d="M201.449 0.758285H217.293V113.743L216.539 114.501H201.449V0.758285Z" fill="#81A247"></path><path d="M162.216 0L177.305 0.758285L178.06 113.743L177.305 114.501H162.216L161.461 97.0604V0.758285L162.216 0Z" fill="#81A247"></path><path d="M0.754491 206.253H108.647V222.177H0.754491L0 221.419L0.754491 206.253Z" fill="#81A247"></path><path d="M0.754491 166.823H108.647V182.747H0.754491L0 178.955L0.754491 166.823Z" fill="#81A247"></path><path d="M270.108 206.253H378V222.177H270.108V206.253Z" fill="#81A347"></path><path d="M270.108 166.823H378V182.747H270.108V166.823Z" fill="#81A247"></path><path d="M202.204 132.7H217.293L218.048 133.458V166.823H246.719V183.505H204.467L202.204 182.747V132.7Z" fill="#81A247"></path><path d="M160.707 132.7H176.551V183.505H137.317L132.036 182.747V166.823H160.707V132.7Z" fill="#81A248"></path><path d="M202.204 206.253H246.719V222.177H218.048V256.3H202.204V206.253Z" fill="#81A247"></path><path d="M132.036 206.253H176.551V256.3H160.707V222.177H132.036V206.253Z" fill="#81A247"></path><path d="M45.2695 294.973H89.7844V341.986H73.9401L73.1856 311.655L45.2695 310.897V294.973Z" fill="#81A247"></path><path d="M73.9401 47.0136H84.503L89.7844 47.7719V94.0273L65.6407 94.7856L45.2695 94.0273L44.515 78.1033H73.9401V47.0136Z" fill="#81A247"></path><path d="M288.97 294.973H333.485V310.897H304.814V341.986H288.97V294.973Z" fill="#81A247"></path><path d="M288.97 47.0136H298.778L304.814 47.7719V78.1033H333.485V94.0273H288.97V47.0136Z" fill="#81A247"></path><path d="M240.683 309.38H256.527V370.043H240.683V309.38Z" fill="#81A247"></path><path d="M122.228 309.38H138.072V370.043H122.982L122.228 369.285V309.38Z" fill="#81A247"></path><path d="M240.683 19.7154H256.527V80.3782H241.437L240.683 79.6199V19.7154Z" fill="#81A247"></path><path d="M122.228 19.7154H138.072V80.3782H122.982L122.228 79.6199V19.7154Z" fill="#81A247"></path></g></svg>